<?xml version="1.0" encoding="utf-8"?>
<svg version="1.1" id="Layer_1" xmlns="http://www.w3.org/2000/svg" xmlns:xlink="http://www.w3.org/1999/xlink" x="0px" y="0px"
	 viewBox="0 0 1730.01 1698.75" enable-background="new 0 0 1730.01 1698.75" xml:space="preserve">
<g>
	<path d="M60.395,49.375c5.236,3.309,217.527,190.466,222.873,193.83c-2.54-5.459-115.903-176.83-118.572-182.46
		c3.461,2.849,170.003,190.758,174.12,194.538c-7.801-21.273-30.395-81.995-31.616-86.741
		c3.214,3.107,91.852,109.751,96.117,115.119c-15.069-1.72-63.084-8.944-75.293-10.058c-1.105,31.581-2.288,63.171-3.652,94.752
		c-4.183-6.013-51.158-78.158-55.971-85.644c-2.644-4.598-207.845-131.164-229.582-145.794
		c8.45,4.138,146.636,76.616,220.033,114.696C236.996,228.56,64.077,54.187,60.395,49.375z"/>
	<path d="M1669.633,50.23c-4.313,5.496-177.022,179.738-198.484,202.282c32.563-16.843,220.042-114.73,220.042-114.73
		c-8.222,5.547-131.951,83.1-226.655,142.694c-2.784,1.787-48.218,73.358-58.898,88.752c-1.537-31.668-2.271-63.37-3.825-95.037
		c-24.994,3.773-50.066,7.088-75.12,10.386c14.301-17.445,92.92-112.018,96.108-115.145c-1.558,5.67-24.539,67.511-31.599,86.706
		c13.143-13.837,170.379-191.317,174.12-194.521c-6.691,11.497-76.128,116.522-119.876,184.118
		C1450.139,241.633,1666.903,51.99,1669.633,50.23z"/>
	<path d="M338.971,287.59c11.84,3.05,99.945,28.408,109.378,31.055c1.891,0.423,3.427,1.64,4.714,3.039
		c200.696,212.245,126.176,100.539,267.776,351.201c-96.117,114.195-192.086,228.52-288.194,342.723
		c-1.374-3.501-49.279-130.286-50.325-134.605c1.982-8.574,22.195-90.757,24.338-99.302c0.904-5.136,5.835,8.381-60.029-125.565
		c-1.033-2.748-0.111,4.633-7.753-142.073C338.875,512.786,338.752,295.89,338.971,287.59z"/>
	<path d="M1391.039,288.479c0.078,18.168,2.221,300.416-7.408,367.899c-19.995,41.078-40.69,81.863-60.65,122.958
		c-0.009,0.319-0.026,0.958-0.034,1.286c25.29,105.003,25.653,100.359,24.277,103.472c-16.714,44.083-33.032,88.329-49.85,132.377
		c-96.108-114.204-192.078-228.52-288.186-342.723c119.473-211.44,101.625-180.32,112.589-192.13
		c50.549-51.904,101.245-103.662,151.854-155.506C1281.553,318.476,1263.287,324.472,1391.039,288.479z"/>
	<path d="M897.454,706.305c142.322,24.326,114.508,17.686,125.833,28.482c93.691,109.162,187.45,218.263,281.063,327.494
		c-182.085-42.803-106.815-40.924-214.887-35.32c-6.042-0.193-64.631,21.096-65.632,21.472
		c-0.999,2.992-27.833,127.492-29.164,135.623c-3.617,35.984-7.2,71.969-10.749,107.953c-15.825-13.71-31.175-27.998-46.681-42.088
		c-86.42,36.704-55.949,25.624-72.219,35.061c-14.302-8.837,8.34-2.418-71.632-35.708c-3.3,1.519-29.143,26.393-47.303,41.89
		c-14.359-148.027-5.652-80.587-38.669-239.303c-0.535-1.925-0.44-4.74-2.935-5.102c-61.698-21.277-58.658-20.694-63.05-20.694
		c-68.794-3.506-68.101-3.781-73.221-2.107c-15.456,4.219-136.616,36.312-142.547,37.452
		c95.469-111.398,191.137-222.632,286.623-334.003c1.656-1.925-7.035-0.334,108.791-19.935
		C891.916,692.98,862.754,701.124,897.454,706.305z"/>
	<path d="M566.023,1047.716c22.952,41.924,15.27,34.64,57.551,70.328c4.573,0.514,74.661,3.674,75.664,3.713
		c0.087,1.071,13.996,171.857,14.47,176.624c40.877,59.662,99.752,133.811,101.616,134.57c14.159,1.122,28.37,1.96,42.485,3.566
		c7.06,24.533,6.272,22.397,7.667,24.01c2.253-7.71,4.498-15.419,6.734-23.129c14.306-1.658,28.741-2.193,43.038-3.755
		c8.937-9.259,90.144-115.658,101.064-134.397c0,0,11.868-145.47,14.478-176.624c1.003-0.037,75.161-2.66,77.14-4.774
		c39.769-35.588,29.615-20.986,56.1-69.284c5.595,0.848,128.411,29.017,140.337,31.443c-0.114,13.212-6.67,148.995-7.002,155.757
		c-15.343,2.428-114.533,17.714-115.128,17.819c-6.21,7.609-51.185,66.761-74.913,97.671c-1.786,2.126-0.603,0.782-7.857,77.097
		c-0.307,3.049-63.874,85.502-65.606,86.697c-59.797,4.051-57.146,3.834-59.882,2.124c-1.005-0.508-104.125-52.625-108.79-55.297
		c-0.807-0.642-109.185,54.783-112.417,55.677c-18.925-0.846-37.841-2.495-56.765-3.194c-0.793-1.012-65.404-84.092-65.459-86.861
		c-7.198-75.419-6.092-75.021-7.848-77.123c-21.083-27.55-42.166-55.108-63.214-82.692c-3.989-4.921-7.494-10.257-11.716-14.97
		c-5.077-1.009-114.116-17.684-115.119-17.837c-0.049-1.001-7.119-146.007-7.01-155.705
		C435.492,1077.184,559.395,1048.885,566.023,1047.716z"/>
	<path d="M429.001,1252.667c118.804,14.802,103.102,13.033,108.911,19.339c75.457,92.09,71.812,85.654,71.235,89.823
		c-0.397,73.884-0.534,70.689,1.545,73.082c43.183,56.179,70.943,93.158,74.257,96.609c2.658,0.603,67.498,3.749,71.96,3.514
		c0.219-0.067,98.882-48.145,112.503-54.443c5.741,4.084,10.636,9.307,16.714,12.916c1,0.495,83.374,41.209,86.991,42.391
		c9.316,0.483,18.622-0.855,27.938-0.941c44.039-2.276,43.98-1.249,45.714-4.291c78.385-102.499,74.357-96.086,74.162-99.674
		c-0.001-1.012-0.119-66.546,0.181-71.287c1.934-3.6,5.042-6.389,7.494-9.618c74.898-90.982,66.302-82.279,72.115-83.132
		c33.472-4.127,66.823-9.177,100.286-13.417c-8.181,195.224-2.915,143.236-28.939,300.437
		c-111.747,49.504-103.636,45.963-106.39,45.196c-18.939-5.578-119.52-37.05-123.701-37.892
		c-3.167,0.515-89.669,38.375-90.669,38.816c-4.214,2.35-75.933,43.104-85.42,49.28h-0.406
		c-2.986-2.626-70.416-42.393-103.515-57.516c-1-0.439-70.907-30.972-73.928-31.469c-3.808,0.842-107.829,33.26-123.796,37.953
		c-2.605,1.002,3.368,3.053-106.313-45.274C432.162,1396.854,437.318,1447.341,429.001,1252.667z"/>
	<path d="M798.514,1269.519c16.041,9.005,32.056,18.061,48.132,26.997c1.977,1.096,4.42,0.915,6.277,2.296
		c4.325,2.866,8.659,5.733,12.993,8.599c21.325-12.406,43.081-24.079,64.466-36.39c3.801-1.974-1.726-6.972,48.106,39.075
		c-9.586,24.714-8.389,22.701-11.388,23.561c-13.615,3.92-27.247,7.779-40.828,11.819c2.996,11.759,6.199,23.466,8.962,35.285
		c-92.79,60.496-57.199,37.554-68.343,45.637c-1.553-0.187,3.964,3.201-72.072-46.526c2.702-11.828,5.931-23.535,8.936-35.285
		c-17.188-5.311-40.85-11.564-43.254-12.95c-3.358-7.304-5.966-14.953-8.944-22.421
		C798.875,1265.31,796.675,1267.997,798.514,1269.519z"/>
</g>
</svg>
